<svg width="173" height="90" viewBox="0 0 173 90" fill="none" xmlns="http://www.w3.org/2000/svg">
<g clip-path="url(#clip0_2_6914)">
<g clip-path="url(#clip1_2_6914)">
<path d="M24.6749 19.4061C20.1629 17.3198 14.5329 19.8959 12.0992 25.1594C10.0155 29.666 10.9513 34.683 14.0956 37.3399L2.54896 58.7596C2.36197 59.0977 2.24716 59.4709 2.2118 59.8556C2.17643 60.2404 2.22127 60.6283 2.34349 60.9948C2.4657 61.3613 2.66263 61.6985 2.92183 61.985C3.18103 62.2715 3.49685 62.5012 3.84933 62.6594L5.21084 63.2889C6.7085 63.9814 8.42292 63.2901 9.02428 61.7536L17.8642 39.0824C21.9263 39.7542 26.3535 37.2203 28.4372 32.7137C30.871 27.4502 29.1869 21.4923 24.6749 19.4061ZM47.7742 30.0866L39.2107 42.6528L37.5088 41.8659L42.6685 27.7259L41.5331 27.2009L34.1023 40.2909L32.4004 39.504L36.4274 24.8401L35.2919 24.3151L27.1081 42.0146C26.9411 42.3757 26.9244 42.7884 27.0617 43.1618C27.199 43.5351 27.479 43.8387 27.8401 44.0057L31.3854 45.645L19.9735 66.8162C19.7865 67.1543 19.6717 67.5276 19.6363 67.9123C19.601 68.2971 19.6458 68.6849 19.768 69.0515C19.8902 69.418 20.0872 69.7552 20.3464 70.0417C20.6056 70.3282 20.9214 70.5578 21.2739 70.7161L22.6354 71.3456C24.133 72.0381 25.8475 71.3468 26.4488 69.8103L35.1867 47.4026L38.7321 49.0419C39.0932 49.2088 39.5058 49.2255 39.8792 49.0883C40.2526 48.951 40.5562 48.671 40.7231 48.3099L48.907 30.6104L47.7715 30.0854L47.7742 30.0866Z" fill="#404040"/>
</g>
<path d="M79.6605 19.712C79.8845 19.8987 80.0898 20.2533 80.2765 20.776C80.4631 21.28 80.5565 21.812 80.5565 22.372C80.5378 22.8947 80.3978 23.3893 80.1365 23.856C79.8938 24.3227 79.4458 24.64 78.7925 24.808C78.6058 24.864 78.3165 24.9107 77.9245 24.948C77.5325 24.9667 77.1218 24.9853 76.6925 25.004C76.2818 25.004 75.9271 25.0133 75.6285 25.032C75.3485 25.032 75.2085 25.032 75.2085 25.032C74.1071 25.032 73.1738 25.1813 72.4085 25.48C71.6431 25.7787 71.2325 26.2453 71.1765 26.88C71.1205 27.496 71.1858 27.916 71.3725 28.14C71.5778 28.364 71.8391 28.5507 72.1565 28.7C72.3805 28.7933 72.7631 28.84 73.3045 28.84C73.8645 28.8213 74.4618 28.7653 75.0965 28.672C75.7311 28.5787 76.3005 28.4667 76.8045 28.336C77.3271 28.2053 77.6725 28.0747 77.8405 27.944C78.0831 28.1493 78.2511 28.5413 78.3445 29.12C78.4378 29.68 78.4285 30.2587 78.3165 30.856C78.2231 31.3413 78.0365 31.7893 77.7565 32.2C77.4765 32.592 77.0938 32.8627 76.6085 33.012C76.2165 33.124 75.9085 33.1893 75.6845 33.208C75.4791 33.2267 75.3111 33.2453 75.1805 33.264C73.7618 33.3013 72.7165 33.6933 72.0445 34.44C71.3911 35.168 71.0831 36.1107 71.1205 37.268C71.1391 37.7347 71.2418 38.1827 71.4285 38.612C71.6338 39.0227 71.8485 39.312 72.0725 39.48C72.0538 39.6667 72.0071 39.872 71.9325 40.096C71.8578 40.3013 71.7271 40.544 71.5405 40.824C71.2978 41.1787 70.9711 41.5053 70.5605 41.804C70.1498 42.1027 69.6178 42.2613 68.9645 42.28C68.2925 42.28 67.7231 42.1307 67.2565 41.832C66.7898 41.5147 66.4351 40.9827 66.1925 40.236C65.9685 39.4893 65.8565 38.4627 65.8565 37.156C65.8565 37.1187 65.8565 36.82 65.8565 36.26C65.8565 35.7 65.8471 35 65.8285 34.16C65.8285 33.32 65.8191 32.4427 65.8005 31.528C65.8005 30.6133 65.7911 29.7733 65.7725 29.008C65.7725 28.224 65.7725 27.6267 65.7725 27.216C65.7725 26.6 65.7445 25.9373 65.6885 25.228C65.6325 24.5187 65.5671 23.8467 65.4925 23.212C65.4178 22.5587 65.3525 22.036 65.2965 21.644C65.2218 21.3267 65.1658 21.0187 65.1285 20.72C65.1098 20.4027 65.1005 20.1227 65.1005 19.88C65.2311 19.936 65.5858 19.992 66.1645 20.048C66.7618 20.0853 67.4525 20.1227 68.2365 20.16C68.3111 20.16 68.5258 20.1693 68.8805 20.188C69.2538 20.2067 69.6831 20.2253 70.1685 20.244C70.6538 20.244 71.1205 20.2533 71.5685 20.272C72.0351 20.2907 72.3898 20.3 72.6325 20.3C72.9311 20.3 73.3138 20.3 73.7805 20.3C74.2658 20.3 74.7605 20.3 75.2645 20.3C75.7685 20.2813 76.2165 20.2627 76.6085 20.244C77.1871 20.2067 77.7938 20.1507 78.4285 20.076C79.0631 19.9827 79.4738 19.8613 79.6605 19.712ZM83.2679 39.704C83.2679 39.5547 83.2679 39.1533 83.2679 38.5C83.2679 37.828 83.2679 36.9973 83.2679 36.008C83.2679 35.0187 83.2585 33.936 83.2399 32.76C83.2399 31.5653 83.2399 30.3613 83.2399 29.148C83.2399 27.9347 83.2305 26.7867 83.2119 25.704C83.2119 24.6027 83.2025 23.6507 83.1839 22.848C83.1652 22.0827 83.0999 21.448 82.9879 20.944C82.8759 20.4213 82.8105 20.104 82.7919 19.992C83.0159 19.9547 83.3519 19.9453 83.7999 19.964C84.2479 19.964 84.7425 20.02 85.2839 20.132C85.8439 20.2253 86.3759 20.384 86.8799 20.608C87.3839 20.8133 87.8039 21.112 88.1399 21.504C88.4759 21.8773 88.6532 22.3533 88.6719 22.932C88.6905 23.2867 88.6999 23.912 88.6999 24.808C88.7185 25.6853 88.7279 26.7213 88.7279 27.916C88.7465 29.092 88.7652 30.3053 88.7839 31.556C88.8025 32.788 88.8119 33.9547 88.8119 35.056C88.8305 36.1573 88.8399 37.0813 88.8399 37.828C88.8585 38.556 88.8679 38.9853 88.8679 39.116C88.8679 39.508 88.9705 39.8907 89.1759 40.264C89.3999 40.6187 89.6332 40.8427 89.8759 40.936C89.7639 41.0853 89.5119 41.2813 89.1199 41.524C88.7279 41.7667 88.2705 41.9907 87.7479 42.196C87.2439 42.4013 86.7305 42.532 86.2079 42.588C85.7785 42.6253 85.3305 42.5227 84.8639 42.28C84.4159 42.056 84.0332 41.72 83.7159 41.272C83.4172 40.824 83.2679 40.3013 83.2679 39.704ZM107.572 36.932C107.591 37.3427 107.619 37.8467 107.656 38.444C107.712 39.0413 107.833 39.62 108.02 40.18C108.207 40.74 108.505 41.188 108.916 41.524C108.449 41.8413 107.973 42.0653 107.488 42.196C107.003 42.3453 106.527 42.3827 106.06 42.308C105.929 42.2707 105.789 42.224 105.64 42.168C105.491 42.1307 105.285 42.0747 105.024 42C104.595 41.8693 104.091 41.8413 103.512 41.916C102.933 41.9907 102.327 42.084 101.692 42.196C101.076 42.3267 100.469 42.392 99.8721 42.392C98.9014 42.392 97.9308 42.224 96.9601 41.888C95.9894 41.5333 95.1121 40.992 94.3281 40.264C93.5441 39.536 92.9468 38.612 92.5361 37.492C92.1254 36.372 92.0041 35.028 92.1721 33.46C92.2841 32.3773 92.5921 31.388 93.0961 30.492C93.6001 29.5773 94.2161 28.7933 94.9441 28.14C95.6908 27.468 96.4748 26.9547 97.2961 26.6C98.1361 26.2267 98.9481 26.0493 99.7321 26.068C100.329 26.0867 100.787 26.1053 101.104 26.124C101.44 26.1427 101.869 26.1893 102.392 26.264C102.709 26.3013 103.111 26.2547 103.596 26.124C104.081 25.9933 104.567 25.8533 105.052 25.704C105.556 25.536 105.985 25.452 106.34 25.452C106.881 25.4333 107.264 25.452 107.488 25.508C107.712 25.5453 107.899 25.5827 108.048 25.62C107.936 25.956 107.843 26.46 107.768 27.132C107.693 27.804 107.637 28.5693 107.6 29.428C107.581 30.268 107.563 31.1453 107.544 32.06C107.525 32.9747 107.516 33.852 107.516 34.692C107.535 35.532 107.553 36.2787 107.572 36.932ZM97.0441 34.356C97.0814 35.2893 97.2494 36.0173 97.5481 36.54C97.8654 37.044 98.2388 37.3987 98.6681 37.604C99.1161 37.8093 99.5454 37.912 99.9561 37.912C100.777 37.9307 101.384 37.6133 101.776 36.96C102.168 36.3067 102.355 35.4013 102.336 34.244C102.336 33.9267 102.299 33.5533 102.224 33.124C102.168 32.6947 102.056 32.2747 101.888 31.864C101.739 31.4533 101.524 31.108 101.244 30.828C100.983 30.548 100.637 30.408 100.208 30.408C99.3494 30.408 98.5934 30.7253 97.9401 31.36C97.3054 31.9947 97.0068 32.9933 97.0441 34.356ZM120.19 25.9C121.292 26.068 122.113 26.3293 122.654 26.684C123.214 27.0387 123.578 27.4587 123.746 27.944C123.933 28.4107 123.98 28.9333 123.886 29.512C123.812 30.0907 123.672 30.688 123.466 31.304C123.317 31.7707 123.093 32.3587 122.794 33.068C122.514 33.7773 122.216 34.5053 121.898 35.252C121.6 35.9987 121.32 36.6707 121.058 37.268C120.797 37.8653 120.62 38.2853 120.526 38.528C120.172 39.3493 119.854 40.0027 119.574 40.488C119.313 40.9547 119.042 41.3 118.762 41.524C118.482 41.748 118.137 41.888 117.726 41.944C117.204 42.0187 116.737 41.9627 116.326 41.776C115.916 41.5707 115.598 41.2627 115.374 40.852C115.356 40.8147 115.318 40.628 115.262 40.292C115.206 39.956 115.15 39.6107 115.094 39.256C115.038 38.8827 114.982 38.64 114.926 38.528C114.721 37.9493 114.45 37.2587 114.114 36.456C113.797 35.6347 113.452 34.7573 113.078 33.824C112.724 32.8907 112.36 31.976 111.986 31.08C111.632 30.184 111.305 29.372 111.006 28.644C110.708 27.8973 110.465 27.3093 110.278 26.88C110.11 26.432 110.026 26.208 110.026 26.208C110.306 26.1707 110.698 26.124 111.202 26.068C111.706 26.012 112.238 26.0027 112.798 26.04C113.377 26.0773 113.918 26.2173 114.422 26.46C114.926 26.7027 115.328 27.0947 115.626 27.636C115.72 27.8227 115.841 28.1213 115.99 28.532C116.158 28.924 116.317 29.288 116.466 29.624C116.578 29.848 116.69 30.1093 116.802 30.408C116.933 30.7067 117.082 30.968 117.25 31.192C117.418 31.416 117.614 31.5373 117.838 31.556C118.137 31.5747 118.38 31.4533 118.566 31.192C118.772 30.9307 118.93 30.6413 119.042 30.324C119.154 29.988 119.238 29.7453 119.294 29.596C119.462 29.1667 119.621 28.7187 119.77 28.252C119.938 27.7667 120.06 27.3187 120.134 26.908C120.228 26.4787 120.246 26.1427 120.19 25.9ZM140.577 33.46C140.745 35.028 140.624 36.372 140.213 37.492C139.803 38.612 139.196 39.536 138.393 40.264C137.609 40.992 136.723 41.5333 135.733 41.888C134.763 42.224 133.792 42.392 132.821 42.392C131.869 42.392 130.899 42.224 129.909 41.888C128.939 41.5333 128.061 40.992 127.277 40.264C126.512 39.536 125.915 38.612 125.485 37.492C125.075 36.372 124.953 35.028 125.121 33.46C125.289 32.0227 125.719 30.7627 126.409 29.68C127.119 28.5973 128.015 27.748 129.097 27.132C130.199 26.4973 131.403 26.1427 132.709 26.068C132.784 26.0493 132.859 25.9933 132.933 25.9C133.027 25.788 133.176 25.6947 133.381 25.62C133.605 25.5267 133.941 25.4987 134.389 25.536C135.453 25.8347 136.424 26.348 137.301 27.076C138.179 27.804 138.907 28.7093 139.485 29.792C140.083 30.8747 140.447 32.0973 140.577 33.46ZM132.569 37.912C133.167 37.912 133.68 37.772 134.109 37.492C134.539 37.212 134.884 36.8573 135.145 36.428C135.407 35.98 135.593 35.5133 135.705 35.028C135.836 34.5427 135.901 34.104 135.901 33.712C135.901 32.9093 135.771 32.284 135.509 31.836C135.248 31.388 134.651 30.9867 133.717 30.632C133.456 30.52 133.279 30.3707 133.185 30.184C133.092 29.9973 132.952 29.8947 132.765 29.876C132.149 29.8013 131.627 29.9693 131.197 30.38C130.768 30.7907 130.441 31.3413 130.217 32.032C129.993 32.7227 129.881 33.4693 129.881 34.272C129.881 35.0747 130.031 35.7467 130.329 36.288C130.647 36.8293 131.011 37.24 131.421 37.52C131.851 37.7813 132.233 37.912 132.569 37.912ZM151.854 25.788C152.227 25.6947 152.573 25.788 152.89 26.068C153.207 26.348 153.487 26.7307 153.73 27.216C153.991 27.6827 154.206 28.168 154.374 28.672C154.542 29.1573 154.673 29.568 154.766 29.904C154.859 30.24 154.906 30.408 154.906 30.408C154.906 30.408 154.682 30.4547 154.234 30.548C153.805 30.6227 153.263 30.7813 152.61 31.024C151.975 31.248 151.341 31.5933 150.706 32.06C150.333 32.34 149.978 32.676 149.642 33.068C149.306 33.46 149.017 33.964 148.774 34.58C148.531 35.1773 148.354 35.9707 148.242 36.96C148.186 37.464 148.177 37.9867 148.214 38.528C148.251 39.0693 148.27 39.5267 148.27 39.9C148.289 40.236 148.335 40.4787 148.41 40.628C148.503 40.7587 148.578 40.8707 148.634 40.964C148.391 41.188 147.943 41.44 147.29 41.72C146.655 41.9813 145.955 42.112 145.19 42.112C144.443 42.112 143.893 41.8693 143.538 41.384C143.183 40.8987 143.006 40.2267 143.006 39.368C143.006 39.1627 142.997 38.7147 142.978 38.024C142.978 37.3147 142.969 36.4653 142.95 35.476C142.95 34.4867 142.941 33.46 142.922 32.396C142.922 31.332 142.913 30.3427 142.894 29.428C142.894 28.4947 142.885 27.7387 142.866 27.16C142.866 26.5813 142.866 26.292 142.866 26.292C143.053 26.2547 143.37 26.2267 143.818 26.208C144.285 26.1893 144.789 26.208 145.33 26.264C145.871 26.32 146.375 26.4507 146.842 26.656C147.066 26.7493 147.365 26.8427 147.738 26.936C148.13 27.0107 148.503 27.048 148.858 27.048C149.231 27.048 149.502 26.992 149.67 26.88C150.025 26.6187 150.379 26.3947 150.734 26.208C151.107 26.0213 151.481 25.8813 151.854 25.788ZM95.337 52.428C95.3743 52.7453 95.393 53.2867 95.393 54.052C95.4116 54.7987 95.421 55.6947 95.421 56.74C95.421 57.7853 95.421 58.8867 95.421 60.044C95.421 61.2013 95.4116 62.3493 95.393 63.488C95.393 64.6267 95.3836 65.6627 95.365 66.596C95.365 67.5293 95.365 68.2947 95.365 68.892C95.365 69.4707 95.3743 69.7973 95.393 69.872C95.4303 70.0213 95.4023 70.264 95.309 70.6C95.2156 70.9173 95.0663 71.2253 94.861 71.524C94.6556 71.804 94.3943 71.972 94.077 72.028C93.7783 72.1027 93.3583 72.1027 92.817 72.028C92.2943 71.972 91.7623 71.832 91.221 71.608C90.6983 71.3653 90.2783 71.02 89.961 70.572C89.7743 70.3107 89.485 69.9373 89.093 69.452C88.7196 68.948 88.2996 68.4067 87.833 67.828C87.385 67.2307 86.937 66.6613 86.489 66.12C86.0596 65.56 85.6956 65.084 85.397 64.692C85.0983 64.2813 84.9116 64.0293 84.837 63.936C84.669 63.6747 84.389 63.4133 83.997 63.152C83.6236 62.872 83.325 62.7693 83.101 62.844C82.877 62.9187 82.709 63.152 82.597 63.544C82.485 63.9173 82.4103 64.3187 82.373 64.748C82.3356 65.028 82.317 65.4573 82.317 66.036C82.317 66.596 82.317 67.1747 82.317 67.772C82.3356 68.3693 82.3356 68.8547 82.317 69.228C82.2983 69.8813 82.5036 70.5067 82.933 71.104C82.7836 71.1973 82.485 71.3467 82.037 71.552C81.589 71.7387 81.113 71.9067 80.609 72.056C80.105 72.2053 79.6756 72.2707 79.321 72.252C78.7236 72.2147 78.1916 71.9067 77.725 71.328C77.277 70.7493 77.0436 70.0307 77.025 69.172C77.025 69.004 77.0156 68.5373 76.997 67.772C76.997 66.988 76.9876 66.0173 76.969 64.86C76.969 63.7027 76.969 62.452 76.969 61.108C76.969 59.764 76.9596 58.4387 76.941 57.132C76.941 55.8067 76.9316 54.6027 76.913 53.52C76.913 52.4187 76.913 51.5413 76.913 50.888C76.913 50.2347 76.913 49.908 76.913 49.908C78.0516 49.8707 79.013 49.9547 79.797 50.16C80.581 50.3653 81.2343 50.7387 81.757 51.28C81.981 51.4853 82.3076 51.8493 82.737 52.372C83.1663 52.8947 83.633 53.492 84.137 54.164C84.6596 54.8173 85.1636 55.4707 85.649 56.124C86.153 56.7773 86.5916 57.356 86.965 57.86C87.3383 58.3453 87.581 58.6627 87.693 58.812C87.9916 59.1853 88.2903 59.484 88.589 59.708C88.9063 59.9133 89.1676 59.9787 89.373 59.904C89.821 59.7547 90.045 59.1293 90.045 58.028L89.989 49.908C90.1943 49.8707 90.549 49.8613 91.053 49.88C91.5756 49.8987 92.1263 49.9827 92.705 50.132C93.3396 50.2813 93.9183 50.5333 94.441 50.888C94.9636 51.2427 95.2623 51.756 95.337 52.428ZM111.779 64.972C112.246 65.2893 112.544 65.7467 112.675 66.344C112.824 66.9227 112.806 67.5573 112.619 68.248C112.451 68.9387 112.106 69.6013 111.583 70.236C111.06 70.852 110.351 71.3653 109.455 71.776C108.578 72.1867 107.514 72.4013 106.263 72.42C105.218 72.4387 104.191 72.308 103.183 72.028C102.194 71.748 101.288 71.3187 100.467 70.74C99.6642 70.1613 99.0109 69.4147 98.5069 68.5C98.0029 67.5853 97.7229 66.4933 97.6669 65.224C97.6482 64.9627 97.6482 64.692 97.6669 64.412C97.6855 64.132 97.7042 63.8427 97.7229 63.544C97.7229 63.4693 97.7229 63.3947 97.7229 63.32C97.7415 63.2453 97.7602 63.1707 97.7789 63.096C97.9655 61.976 98.3482 60.9493 98.9269 60.016C99.5242 59.0827 100.252 58.2893 101.111 57.636C101.97 56.9827 102.884 56.5067 103.855 56.208C104.844 55.8907 105.815 55.7787 106.767 55.872C108.242 56.0213 109.38 56.4133 110.183 57.048C111.004 57.6827 111.536 58.4667 111.779 59.4C112.04 60.3147 112.05 61.304 111.807 62.368C111.676 62.8907 111.378 63.4133 110.911 63.936C110.463 64.44 109.903 64.8973 109.231 65.308C108.559 65.7 107.84 66.008 107.075 66.232C106.328 66.4373 105.6 66.5213 104.891 66.484C104.536 66.4653 104.35 66.5773 104.331 66.82C104.312 67.044 104.415 67.296 104.639 67.576C104.863 67.8373 105.162 68.0147 105.535 68.108C106.412 68.2947 107.234 68.304 107.999 68.136C108.783 67.9493 109.38 67.6973 109.791 67.38C110.127 67.1187 110.482 66.7733 110.855 66.344C111.228 65.896 111.536 65.4387 111.779 64.972ZM105.647 62.144C106.076 62.1067 106.45 61.976 106.767 61.752C107.103 61.5093 107.271 61.2573 107.271 60.996C107.29 60.6227 107.196 60.324 106.991 60.1C106.804 59.8573 106.478 59.7453 106.011 59.764C105.488 59.7827 104.984 59.8573 104.499 59.988C104.014 60.1187 103.724 60.3893 103.631 60.8C103.575 61.08 103.659 61.3227 103.883 61.528C104.107 61.7333 104.387 61.892 104.723 62.004C105.059 62.0973 105.367 62.144 105.647 62.144ZM122.338 55.732C123.719 55.732 124.895 55.928 125.866 56.32C126.855 56.712 127.611 57.1973 128.134 57.776C128.657 58.3547 128.909 58.924 128.89 59.484C128.89 59.7827 128.759 60.1187 128.498 60.492C128.237 60.8653 127.891 61.1827 127.462 61.444C127.051 61.6867 126.594 61.78 126.09 61.724C126.221 61.388 126.137 61.0707 125.838 60.772C125.539 60.4733 125.11 60.2307 124.55 60.044C123.99 59.8387 123.383 59.7267 122.73 59.708C121.983 59.6707 121.479 59.7547 121.218 59.96C120.957 60.1467 120.807 60.352 120.77 60.576C120.714 60.8187 120.826 61.0333 121.106 61.22C121.386 61.388 121.75 61.5467 122.198 61.696C122.665 61.8267 123.15 61.948 123.654 62.06C124.177 62.1533 124.653 62.2373 125.082 62.312C125.53 62.3867 125.875 62.4613 126.118 62.536C127.238 62.872 128.059 63.3107 128.582 63.852C129.105 64.3747 129.441 64.9347 129.59 65.532C129.758 66.1293 129.823 66.7173 129.786 67.296C129.749 68.2293 129.506 69.0133 129.058 69.648C128.629 70.264 128.087 70.7587 127.434 71.132C126.799 71.5053 126.127 71.7853 125.418 71.972C124.727 72.14 124.074 72.252 123.458 72.308C122.861 72.364 122.403 72.392 122.086 72.392C121.115 72.3733 120.201 72.2707 119.342 72.084C118.502 71.916 117.774 71.692 117.158 71.412C116.561 71.132 116.131 70.8333 115.87 70.516C115.683 70.292 115.506 69.9747 115.338 69.564C115.17 69.1533 115.067 68.7147 115.03 68.248C115.011 67.7627 115.114 67.3053 115.338 66.876C115.562 66.428 115.973 66.064 116.57 65.784C116.682 66.1573 116.981 66.4933 117.466 66.792C117.97 67.0907 118.567 67.3333 119.258 67.52C119.967 67.7067 120.667 67.8373 121.358 67.912C122.03 67.968 122.665 67.9587 123.262 67.884C123.859 67.8093 124.186 67.5947 124.242 67.24C124.279 67.0533 124.186 66.8667 123.962 66.68C123.738 66.4933 123.327 66.3347 122.73 66.204C122.095 66.0547 121.535 65.9427 121.05 65.868C120.583 65.7747 120.117 65.672 119.65 65.56C118.773 65.336 118.007 64.9813 117.354 64.496C116.701 64.0107 116.206 63.432 115.87 62.76C115.553 62.0693 115.441 61.3413 115.534 60.576C115.683 59.4747 116.085 58.5693 116.738 57.86C117.41 57.1507 118.241 56.6187 119.23 56.264C120.219 55.9093 121.255 55.732 122.338 55.732ZM142.543 56.46C142.73 56.6467 142.87 56.992 142.963 57.496C143.075 57.9813 143.103 58.5227 143.047 59.12C143.01 59.6987 142.87 60.2307 142.627 60.716C142.403 61.1827 142.058 61.5 141.591 61.668C140.863 61.9293 140.331 62.396 139.995 63.068C139.659 63.74 139.463 64.5893 139.407 65.616V67.996C139.445 68.2947 139.566 68.5373 139.771 68.724C139.995 68.9107 140.21 69.0413 140.415 69.116C140.639 69.1907 140.751 69.228 140.751 69.228C140.751 69.228 140.714 69.3587 140.639 69.62C140.583 69.8813 140.471 70.1893 140.303 70.544C140.135 70.8987 139.893 71.244 139.575 71.58C139.258 71.8973 138.847 72.1213 138.343 72.252C138.082 72.308 137.727 72.3173 137.279 72.28C136.85 72.2613 136.411 72.1773 135.963 72.028C135.515 71.8787 135.142 71.6733 134.843 71.412C134.675 71.2627 134.535 71.104 134.423 70.936C134.311 70.768 134.227 70.516 134.171 70.18C134.134 69.844 134.115 69.368 134.115 68.752V65.756C134.097 64.6733 133.863 63.7773 133.415 63.068C132.967 62.34 132.379 61.7147 131.651 61.192C131.315 60.9493 131.073 60.5573 130.923 60.016C130.793 59.456 130.709 58.868 130.671 58.252C130.634 57.636 130.625 57.1133 130.643 56.684C130.737 56.7027 130.989 56.74 131.399 56.796C131.81 56.852 132.165 56.88 132.463 56.88C133.061 56.8613 133.471 56.628 133.695 56.18C133.919 55.732 134.031 55.172 134.031 54.5L134.003 52.008C134.171 51.9893 134.451 51.9707 134.843 51.952C135.254 51.9147 135.702 51.9147 136.187 51.952C136.673 51.9893 137.139 52.0827 137.587 52.232C138.054 52.3627 138.446 52.5773 138.763 52.876C139.099 53.1747 139.295 53.576 139.351 54.08C139.351 54.136 139.351 54.2107 139.351 54.304C139.37 54.3787 139.379 54.472 139.379 54.584H139.407C139.407 54.8267 139.435 55.116 139.491 55.452C139.566 55.788 139.669 56.068 139.799 56.292C139.93 56.4787 140.135 56.6187 140.415 56.712C140.695 56.7867 140.966 56.8333 141.227 56.852C141.507 56.852 141.713 56.8333 141.843 56.796C142.049 56.74 142.198 56.6933 142.291 56.656C142.385 56.6 142.469 56.5347 142.543 56.46Z" fill="#404040"/>
</g>
<defs>
<clipPath id="clip0_2_6914">
<rect width="173" height="90" fill="white"/>
</clipPath>
<clipPath id="clip1_2_6914">
<rect width="39.36" height="48" fill="white" transform="translate(15.1445 15) rotate(24.8147)"/>
</clipPath>
</defs>
</svg>
