<svg width="51" height="61" viewBox="0 0 51 61" fill="none" xmlns="http://www.w3.org/2000/svg">
<g clip-path="url(#clip0_140_35264)">
<path d="M24.6729 4.40607C20.1609 2.31981 14.531 4.89585 12.0972 10.1594C10.0135 14.666 10.9494 19.683 14.0936 22.3399L2.54701 43.7596C2.36002 44.0977 2.24521 44.4709 2.20984 44.8556C2.17447 45.2404 2.21932 45.6283 2.34153 45.9948C2.46375 46.3613 2.66068 46.6985 2.91988 46.985C3.17907 47.2715 3.4949 47.5012 3.84738 47.6594L5.20889 48.2889C6.70654 48.9814 8.42097 48.2901 9.02233 46.7536L17.8623 24.0824C21.9244 24.7542 26.3516 22.2203 28.4353 17.7137C30.869 12.4502 29.185 6.49232 24.6729 4.40607ZM47.7722 15.0866L39.2087 27.6528L37.5068 26.8659L42.6666 12.7259L41.5311 12.2009L34.1004 25.2909L32.3985 24.504L36.4255 9.84014L35.29 9.31511L27.1061 27.0146C26.9392 27.3757 26.9225 27.7884 27.0598 28.1618C27.197 28.5351 27.477 28.8387 27.8381 29.0057L31.3835 30.645L19.9716 51.8163C19.7846 52.1544 19.6698 52.5276 19.6344 52.9123C19.599 53.2971 19.6439 53.6849 19.7661 54.0515C19.8883 54.418 20.0852 54.7552 20.3444 55.0417C20.6036 55.3282 20.9194 55.5578 21.2719 55.7161L22.6334 56.3456C24.1311 57.0381 25.8455 56.3468 26.4469 54.8103L35.1848 32.4026L38.7302 34.0419C39.0912 34.2088 39.5039 34.2255 39.8773 34.0883C40.2507 33.951 40.5542 33.671 40.7212 33.3099L48.905 15.6104L47.7695 15.0854L47.7722 15.0866Z" fill="#404040"/>
</g>
<defs>
<clipPath id="clip0_140_35264">
<rect width="39.36" height="48" fill="white" transform="translate(15.1445) rotate(24.8147)"/>
</clipPath>
</defs>
</svg>
