<svg width="34" height="34" viewBox="0 0 34 34" fill="none" xmlns="http://www.w3.org/2000/svg">
<path d="M17.0001 3.42169e-06C13.0363 -0.00251037 9.19625 1.38014 6.14389 3.90889C3.09153 6.43763 1.01875 9.95349 0.283947 13.8486C-0.450852 17.7436 0.198524 21.773 2.11979 25.24C4.04106 28.707 7.11344 31.3937 10.8057 32.8355C10.6569 31.4904 10.5209 29.4228 10.8631 27.9544C11.1733 26.6263 12.8563 19.5033 12.8563 19.5033C12.8563 19.5033 12.3484 18.4854 12.3484 16.9809C12.3484 14.6158 13.7191 12.852 15.4254 12.852C16.8747 12.852 17.5759 13.94 17.5759 15.2469C17.5759 16.7046 16.6473 18.8849 16.1671 20.9058C15.7676 22.5973 17.0171 23.9785 18.6852 23.9785C21.7069 23.9785 24.0296 20.791 24.0296 16.1925C24.0296 12.1231 21.1034 9.27775 16.9278 9.27775C12.0913 9.27775 9.25232 12.9051 9.25232 16.6536C9.25232 18.1156 9.81544 19.6818 10.5167 20.5339C10.5771 20.5981 10.6198 20.6769 10.6406 20.7626C10.6615 20.8482 10.6598 20.9378 10.6357 21.0226C10.5061 21.5581 10.2192 22.7141 10.1639 22.95C10.0896 23.2603 9.91744 23.3261 9.59444 23.1774C7.46944 22.1893 6.14344 19.0846 6.14344 16.5899C6.14344 11.2285 10.0407 6.30488 17.3762 6.30488C23.2731 6.30488 27.8567 10.506 27.8567 16.1224C27.8567 21.981 24.1613 26.6964 19.0358 26.6964C17.3124 26.6964 15.6932 25.8018 15.1386 24.7435L14.0803 28.7853C13.6957 30.2621 12.6587 32.113 11.9659 33.2414C14.3034 33.9641 16.7693 34.1738 19.1952 33.8561C21.6211 33.5384 23.9498 32.7008 26.0223 31.4005C28.0948 30.1002 29.8623 28.3679 31.2039 26.322C32.5455 24.276 33.4297 21.9645 33.796 19.5455C34.1623 17.1264 34.0022 14.6568 33.3266 12.3054C32.6509 9.95387 31.4757 7.77594 29.8811 5.92033C28.2865 4.06472 26.3102 2.57516 24.0872 1.55341C21.8641 0.531657 19.4467 0.00178989 17.0001 3.42169e-06Z" fill="#404040"/>
</svg>
