<svg width="34" height="24" viewBox="0 0 34 24" fill="none" xmlns="http://www.w3.org/2000/svg">
<path d="M13.6663 16.9987L22.3163 11.9987L13.6663 6.9987V16.9987ZM32.933 3.9487C33.1497 4.73203 33.2997 5.78203 33.3997 7.11537C33.5163 8.4487 33.5663 9.5987 33.5663 10.5987L33.6663 11.9987C33.6663 15.6487 33.3997 18.332 32.933 20.0487C32.5163 21.5487 31.5497 22.5154 30.0497 22.932C29.2663 23.1487 27.833 23.2987 25.633 23.3987C23.4663 23.5154 21.483 23.5654 19.6497 23.5654L16.9997 23.6654C10.0163 23.6654 5.66634 23.3987 3.94968 22.932C2.44968 22.5154 1.48301 21.5487 1.06634 20.0487C0.849675 19.2654 0.699675 18.2154 0.599675 16.882C0.483008 15.5487 0.433008 14.3987 0.433008 13.3987L0.333008 11.9987C0.333008 8.3487 0.599675 5.66537 1.06634 3.9487C1.48301 2.4487 2.44968 1.48203 3.94968 1.06536C4.73301 0.848698 6.16634 0.698698 8.36634 0.598698C10.533 0.482031 12.5163 0.432031 14.3497 0.432031L16.9997 0.332031C23.983 0.332031 28.333 0.598698 30.0497 1.06536C31.5497 1.48203 32.5163 2.4487 32.933 3.9487Z" fill="#404040"/>
</svg>
