<svg width="34" height="24" viewBox="0 0 34 24" fill="none" xmlns="http://www.w3.org/2000/svg">
<path d="M13.6663 16.9997L22.3163 11.9997L13.6663 6.99967V16.9997ZM32.933 3.94967C33.1497 4.73301 33.2997 5.78301 33.3997 7.11634C33.5163 8.44967 33.5663 9.59967 33.5663 10.5997L33.6663 11.9997C33.6663 15.6497 33.3997 18.333 32.933 20.0497C32.5163 21.5497 31.5497 22.5163 30.0497 22.933C29.2663 23.1497 27.833 23.2997 25.633 23.3997C23.4663 23.5163 21.483 23.5663 19.6497 23.5663L16.9997 23.6663C10.0163 23.6663 5.66634 23.3997 3.94967 22.933C2.44967 22.5163 1.48301 21.5497 1.06634 20.0497C0.849675 19.2663 0.699675 18.2163 0.599675 16.883C0.483008 15.5497 0.433008 14.3997 0.433008 13.3997L0.333008 11.9997C0.333008 8.34968 0.599675 5.66634 1.06634 3.94967C1.48301 2.44967 2.44967 1.48301 3.94967 1.06634C4.73301 0.849675 6.16634 0.699674 8.36634 0.599674C10.533 0.483008 12.5163 0.433008 14.3497 0.433008L16.9997 0.333008C23.983 0.333008 28.333 0.599675 30.0497 1.06634C31.5497 1.48301 32.5163 2.44967 32.933 3.94967Z" fill="#FF0000"/>
</svg>
