<svg width="130" height="100" viewBox="0 0 130 100" fill="none" xmlns="http://www.w3.org/2000/svg">
<g clip-path="url(#clip0_491_16661)">
<path d="M14.814 35.7566C14.814 35.7566 -8.70195 76.7647 3.92537 85.3175C16.5527 93.8704 49.2362 99.9996 62.3729 99.9821C75.492 99.9645 115.376 97.2424 127.318 61.942C139.261 26.6417 105.875 2.52863 75.5271 3.7053C45.1793 4.88198 14.814 35.7566 14.814 35.7566Z" fill="#CFA9B5"/>
<path d="M84.2109 52.5L84.2905 52.4532C86.4764 51.169 88.9996 50.3025 91.6671 49.9199C94.3346 49.5373 97.0759 49.6487 99.6816 50.2456L103.453 51.1094L106.921 48.3281L99.9838 41.375L93.0463 42.7656L89.5775 38.5937L94.7807 33.0312L98.3743 33.9178C104.069 35.3228 109.164 37.9718 113.088 41.5677C117.011 45.1636 119.608 49.5645 120.588 54.2772L120.613 54.4008C120.671 54.6791 120.658 54.9639 120.575 55.2379C120.491 55.512 120.339 55.7697 120.128 55.9953L112.069 64.6116C110.017 66.8046 107.221 68.4767 104.015 69.4278C100.808 70.3788 97.3278 70.5684 93.9904 69.9737L86.1088 69.1875L84.2109 52.5Z" fill="#F5D3BD"/>
<path d="M56.7893 52.5L56.7098 52.4532C54.5238 51.169 52.0007 50.3025 49.3332 49.9199C46.6656 49.5373 43.9243 49.6487 41.3187 50.2456L37.5477 51.1094L34.079 48.3281L41.0165 41.375L47.954 42.7656L51.4227 38.5937L46.2196 33.0312L42.626 33.9178C36.9308 35.3228 31.8361 37.9718 27.9127 41.5677C23.9893 45.1636 21.3924 49.5645 20.4128 54.2772L20.387 54.4008C20.3291 54.6791 20.3423 54.9639 20.4256 55.2379C20.509 55.512 20.6608 55.7697 20.8719 55.9953L28.9316 64.6116C30.9828 66.8046 33.7792 68.4767 36.9856 69.4278C40.1921 70.3788 43.6725 70.5684 47.0098 69.9737L54.8915 69.1875L56.7893 52.5Z" fill="#F5D3BD"/>
<path d="M101.719 62.2344H93.0469C92.5869 62.2344 92.1457 62.0879 91.8205 61.8271C91.4952 61.5663 91.3125 61.2126 91.3125 60.8438C91.3125 60.475 91.4952 60.1213 91.8205 59.8605C92.1457 59.5997 92.5869 59.4532 93.0469 59.4532H101.001L103.961 57.0792C104.286 56.8184 104.728 56.6719 105.187 56.6719C105.647 56.6719 106.089 56.8184 106.414 57.0792C106.739 57.34 106.922 57.6937 106.922 58.0625C106.922 58.4314 106.739 58.7851 106.414 59.0459L102.945 61.8271C102.784 61.9563 102.593 62.0587 102.382 62.1286C102.172 62.1985 101.947 62.2344 101.719 62.2344Z" fill="#E8C8B3"/>
<path d="M47.9532 62.2344H39.2813C39.0535 62.2344 38.828 62.1985 38.6176 62.1286C38.4071 62.0587 38.2159 61.9563 38.0549 61.8271L34.5861 59.0459C34.2609 58.7851 34.0781 58.4314 34.0781 58.0625C34.0781 57.6937 34.2609 57.34 34.5861 57.0792C34.9114 56.8184 35.3525 56.6719 35.8125 56.6719C36.2725 56.6719 36.7137 56.8184 37.039 57.0792L39.9995 59.4532H47.9532C48.4132 59.4532 48.8543 59.5997 49.1796 59.8605C49.5048 60.1213 49.6875 60.475 49.6875 60.8438C49.6875 61.2126 49.5048 61.5663 49.1796 61.8271C48.8543 62.0879 48.4132 62.2344 47.9532 62.2344Z" fill="#E8C8B3"/>
<path d="M70.4981 80.3119L60.3074 74.4386C54.4635 71.0704 49.6824 66.6535 46.3456 61.5406L46.2045 61.3241C45.58 60.3672 45.2726 59.2976 45.3119 58.218C45.3512 57.1385 45.7358 56.0851 46.4289 55.159L46.4356 55.1498C47.3285 53.9568 48.5915 52.9696 50.1015 52.2842C51.6116 51.5988 53.3172 51.2386 55.0524 51.2386H55.5753C56.9956 51.2386 58.3996 51.48 59.695 51.9468C60.9904 52.4136 62.1477 53.0953 63.0906 53.9469L70.4981 60.8432L77.9058 53.9465C78.8487 53.095 80.006 52.4133 81.3014 51.9465C82.5968 51.4797 84.0009 51.2383 85.4211 51.2383H85.944C87.6792 51.2382 89.3849 51.5984 90.8949 52.2838C92.405 52.9692 93.6679 53.9565 94.5608 55.1494L94.5676 55.1586C95.2606 56.0847 95.6452 57.1381 95.6845 58.2177C95.7238 59.2973 95.4165 60.3668 94.7919 61.3238L94.6508 61.5402C91.3141 66.6532 86.533 71.07 80.6891 74.4383L70.4981 80.3119Z" fill="#F55648"/>
<path d="M62.6953 66.4062C64.1321 66.4062 65.2969 65.4723 65.2969 64.3203C65.2969 63.1683 64.1321 62.2344 62.6953 62.2344C61.2585 62.2344 60.0938 63.1683 60.0938 64.3203C60.0938 65.4723 61.2585 66.4062 62.6953 66.4062Z" fill="#A83B32"/>
<path d="M78.3047 66.4062C79.7415 66.4062 80.9062 65.4723 80.9062 64.3203C80.9062 63.1683 79.7415 62.2344 78.3047 62.2344C76.8679 62.2344 75.7031 63.1683 75.7031 64.3203C75.7031 65.4723 76.8679 66.4062 78.3047 66.4062Z" fill="#A83B32"/>
<path d="M73.9688 70.5781H67.0312C66.5713 70.5781 66.1301 70.4316 65.8049 70.1708C65.4796 69.91 65.2969 69.5563 65.2969 69.1875C65.2969 68.8187 65.4796 68.465 65.8049 68.2042C66.1301 67.9434 66.5713 67.7969 67.0312 67.7969H73.9688C74.4287 67.7969 74.8699 67.9434 75.1951 68.2042C75.5204 68.465 75.7031 68.8187 75.7031 69.1875C75.7031 69.5563 75.5204 69.91 75.1951 70.1708C74.8699 70.4316 74.4287 70.5781 73.9688 70.5781Z" fill="#A83B32"/>
<path d="M56.6249 46.9379C56.2609 46.9379 55.9061 46.846 55.6108 46.6753C55.3155 46.5046 55.0947 46.2637 54.9796 45.9868L53.2453 41.8149C53.0998 41.465 53.1336 41.0831 53.3394 40.7531C53.5451 40.4232 53.9058 40.1724 54.3423 40.0557C54.7787 39.9391 55.255 39.9662 55.6664 40.1312C56.0779 40.2962 56.3908 40.5854 56.5362 40.9353L58.2706 45.1072C58.3576 45.3163 58.3814 45.5389 58.34 45.7568C58.2986 45.9747 58.1931 46.1816 58.0324 46.3604C57.8717 46.5392 57.6602 46.6849 57.4155 46.7853C57.1708 46.8857 56.8998 46.938 56.6249 46.9379Z" fill="#F7BA61"/>
<path d="M63.5609 48.3299C63.2471 48.3297 62.9392 48.2612 62.6701 48.1317C62.401 48.0023 62.1808 47.8167 62.0329 47.5948C61.885 47.3729 61.8149 47.123 61.8302 46.8716C61.8455 46.6203 61.9455 46.377 62.1196 46.1677L65.5884 41.9958C65.8447 41.6911 66.241 41.4802 66.6907 41.4091C67.1405 41.338 67.607 41.4125 67.9884 41.6164C68.3698 41.8203 68.635 42.137 68.726 42.4972C68.8171 42.8574 68.7266 43.2318 68.4744 43.5387L65.0056 47.7106C64.8472 47.9014 64.6324 48.0578 64.3803 48.1658C64.1282 48.2739 63.8467 48.3303 63.5609 48.3299Z" fill="#F7BA61"/>
<path d="M84.3755 46.9379C84.1006 46.938 83.8296 46.8857 83.5849 46.7853C83.3402 46.6849 83.1287 46.5392 82.968 46.3604C82.8073 46.1816 82.7018 45.9747 82.6604 45.7568C82.619 45.5389 82.6428 45.3163 82.7298 45.1072L84.4642 40.9353C84.6096 40.5854 84.9225 40.2962 85.334 40.1312C85.7454 39.9662 86.2217 39.9391 86.6581 40.0557C87.0946 40.1724 87.4553 40.4232 87.661 40.7531C87.8668 41.0831 87.9006 41.465 87.7551 41.8149L86.0208 45.9868C85.9057 46.2637 85.6849 46.5046 85.3896 46.6753C85.0943 46.846 84.7395 46.9379 84.3755 46.9379Z" fill="#F7BA61"/>
<path d="M77.4405 48.3267C77.1546 48.327 76.8731 48.2706 76.621 48.1625C76.369 48.0545 76.1541 47.8981 75.9957 47.7073L72.527 43.5354C72.3992 43.3835 72.3101 43.2128 72.2648 43.0332C72.2196 42.8536 72.219 42.6686 72.2632 42.4888C72.3074 42.309 72.3955 42.138 72.5224 41.9856C72.6493 41.8332 72.8125 41.7025 73.0027 41.6008C73.1928 41.4991 73.4062 41.4286 73.6304 41.3933C73.8547 41.358 74.0854 41.3585 74.3094 41.3949C74.5334 41.4313 74.7462 41.5028 74.9356 41.6054C75.125 41.708 75.2872 41.8395 75.413 41.9925L78.8817 46.1644C79.0559 46.3737 79.1559 46.617 79.1712 46.8683C79.1864 47.1197 79.1164 47.3696 78.9685 47.5915C78.8205 47.8134 78.6003 47.999 78.3312 48.1285C78.0621 48.2579 77.7543 48.3264 77.4405 48.3267Z" fill="#F7BA61"/>
<path d="M34.0781 24.6875H30.6094V27.4688H34.0781V24.6875Z" fill="#8ED2FF"/>
<path d="M34.0781 30.25H30.6094V33.0312H34.0781V30.25Z" fill="#8ED2FF"/>
<path d="M30.6094 27.4688H27.1406V30.25H30.6094V27.4688Z" fill="#8ED2FF"/>
<path d="M37.5469 27.4688H34.0781V30.25H37.5469V27.4688Z" fill="#8ED2FF"/>
<path d="M82.6406 23.2969H79.1719V26.0781H82.6406V23.2969Z" fill="#8ED2FF"/>
<path d="M82.6406 31.6406H79.1719V34.4219H82.6406V31.6406Z" fill="#8ED2FF"/>
<path d="M77.4375 27.4688H73.9688V30.25H77.4375V27.4688Z" fill="#8ED2FF"/>
<path d="M87.8438 27.4688H84.375V30.25H87.8438V27.4688Z" fill="#8ED2FF"/>
<path d="M62.6953 66.4062C64.1321 66.4062 65.2969 65.4723 65.2969 64.3203C65.2969 63.1683 64.1321 62.2344 62.6953 62.2344C61.2585 62.2344 60.0938 63.1683 60.0938 64.3203C60.0938 65.4723 61.2585 66.4062 62.6953 66.4062Z" fill="black"/>
<path d="M78.3047 66.4062C79.7415 66.4062 80.9062 65.4723 80.9062 64.3203C80.9062 63.1683 79.7415 62.2344 78.3047 62.2344C76.8679 62.2344 75.7031 63.1683 75.7031 64.3203C75.7031 65.4723 76.8679 66.4062 78.3047 66.4062Z" fill="black"/>
<path d="M122.324 54.1712L122.299 54.0495C121.266 49.082 118.529 44.4433 114.393 40.6529C110.258 36.8626 104.888 34.0705 98.8846 32.5895L95.291 31.703C94.9497 31.6188 94.5842 31.6211 94.2446 31.7096C93.905 31.7981 93.6077 31.9685 93.3934 32.1975L88.1902 37.76C87.9749 37.9902 87.854 38.2683 87.844 38.5559C87.8341 38.8435 87.9357 39.1265 88.1347 39.3659L91.6035 43.5377C91.8017 43.7767 92.0874 43.9606 92.4213 44.064C92.7552 44.1675 93.1208 44.1854 93.4679 44.1154L99.3258 42.9412L104.598 48.2255L102.949 49.5482L100.157 48.909C95.5619 47.8547 90.6435 48.1911 86.3371 49.8541C86.207 49.8507 86.0761 49.8489 85.9444 49.8488H85.4217C83.7565 49.8492 82.1103 50.1325 80.5914 50.6798C79.0725 51.2272 77.7155 52.0264 76.6096 53.0246L76.5923 53.0402L70.4996 58.7135L64.4061 53.0395L64.3888 53.0239C63.2829 52.0257 61.9258 51.2265 60.407 50.6791C58.8881 50.1318 57.2419 49.8485 55.5766 49.8481H55.0539C54.9192 49.8481 54.7849 49.85 54.6509 49.854C50.3487 48.1895 45.4329 47.8529 40.8409 48.9083L38.051 49.5475L36.4016 48.2248L41.6741 42.9405L47.5319 44.1147C47.8791 44.1847 48.2447 44.1667 48.5786 44.0633C48.9124 43.9598 49.1981 43.776 49.3964 43.5371L52.8651 39.3652C53.0642 39.1258 53.1658 38.8428 53.1558 38.5552C53.1459 38.2676 53.0249 37.9895 52.8096 37.7594L47.6065 32.1969C47.3922 31.9678 47.095 31.7973 46.7553 31.7088C46.4157 31.6202 46.0502 31.6179 45.7089 31.7021L42.1153 32.5887C36.1125 34.0696 30.7425 36.8614 26.6071 40.6514C22.4716 44.4414 19.7341 49.0799 18.7012 54.0471L18.675 54.1722C18.5798 54.636 18.6024 55.1104 18.7413 55.567C18.8802 56.0236 19.1326 56.453 19.4834 56.8295L27.5428 65.446C29.7901 67.8458 32.8502 69.6773 36.3587 70.7223C39.8672 71.7674 43.6764 71.982 47.3327 71.3407L52.3771 70.6954C54.483 72.4943 56.8003 74.1262 59.2969 75.5684L69.4874 81.4431C69.7823 81.613 70.1364 81.7045 70.4996 81.7045C70.8628 81.7045 71.2169 81.613 71.5118 81.4431L81.7028 75.5698C84.1993 74.1276 86.5165 72.4957 88.6223 70.6968L93.6667 71.3421C97.3231 71.9834 101.132 71.7688 104.641 70.7237C108.149 69.6787 111.209 67.8472 113.457 65.4474L121.516 56.8311C121.867 56.4542 122.12 56.0243 122.258 55.5672C122.397 55.1102 122.42 54.6353 122.324 54.1712ZM46.7354 68.6012C46.701 68.6055 46.6665 68.6109 46.6325 68.617C43.6207 69.1506 40.481 68.9782 37.5881 68.1201C34.6952 67.2621 32.1714 65.7547 30.3178 63.778L22.258 55.1615C22.1881 55.0864 22.1377 55.0008 22.1099 54.9097C22.0821 54.8187 22.0773 54.7241 22.096 54.6316L22.1223 54.5067C23.0489 50.0487 25.5055 45.8857 29.2168 42.4842C32.928 39.0826 37.7473 36.5769 43.1346 35.2477L45.5628 34.6487L49.2977 38.6415L47.1877 41.1794L41.4358 40.0266C41.1137 39.962 40.7752 39.9728 40.4606 40.0579C40.146 40.143 39.8684 40.2987 39.6609 40.5065L32.7234 47.4597C32.4568 47.7269 32.3224 48.0636 32.346 48.4052C32.3696 48.7469 32.5495 49.0696 32.8513 49.3116L36.3201 52.0929C36.5387 52.2683 36.8119 52.3936 37.1113 52.4558C37.4107 52.518 37.7254 52.5149 38.0228 52.4466L41.7951 51.5829C44.0926 51.0557 46.5082 50.9478 48.8646 51.267C47.2599 52.0599 45.9155 53.1495 44.9438 54.4446C43.8252 55.9508 43.3784 57.7172 43.6766 59.4538H39.9991L37.0385 57.0798C36.7133 56.819 36.2721 56.6725 35.8121 56.6725C35.3521 56.6725 34.911 56.819 34.5857 57.0798C34.2604 57.3406 34.0777 57.6944 34.0777 58.0632C34.0777 58.432 34.2604 58.7857 34.5857 59.0465L38.0544 61.8278C38.2155 61.9569 38.4067 62.0593 38.6171 62.1292C38.8276 62.1991 39.0531 62.2351 39.2809 62.2351H44.484C44.5984 62.235 44.7124 62.2259 44.8246 62.2079C46.2153 64.3302 47.8511 66.3433 49.7105 68.2206L46.7354 68.6012ZM79.6781 73.3107L70.4996 78.6004L61.3213 73.3107C55.7025 70.0643 51.1023 65.8148 47.884 60.8978L47.7424 60.681C47.2585 59.9325 47.0212 59.0973 47.053 58.2546C47.0849 57.4118 47.3848 56.5896 47.9243 55.866C48.6661 54.881 49.7117 54.0659 50.9604 53.499C52.2092 52.9321 53.6189 52.6326 55.0539 52.6293H55.5766C56.7498 52.6299 57.9096 52.8294 58.9799 53.2146C60.0502 53.5999 61.0068 54.1622 61.787 54.8647L69.1854 61.7529C69.3482 61.9045 69.5499 62.0261 69.7767 62.1095C70.0035 62.1929 70.2501 62.236 70.4996 62.236C70.7491 62.236 70.9957 62.1929 71.2225 62.1095C71.4493 62.0261 71.651 61.9045 71.8138 61.7529L79.2122 54.8647C79.9926 54.1625 80.9493 53.6004 82.0196 53.2155C83.0899 52.8305 84.2496 52.6313 85.4226 52.6309H85.9453C87.3825 52.6346 88.7943 52.9352 90.0444 53.5038C91.2944 54.0724 92.3407 54.8897 93.082 55.8769C93.6186 56.5999 93.9162 57.4206 93.9466 58.2615C93.9769 59.1025 93.739 59.9357 93.2555 60.6822L93.1148 60.8981C89.8966 65.8149 85.2966 70.0643 79.6781 73.3107ZM118.741 55.1616L110.681 63.778C108.828 65.7548 106.304 67.2622 103.411 68.1202C100.518 68.9782 97.3786 69.1507 94.3668 68.617C94.3327 68.6109 94.2983 68.6055 94.2638 68.6012L91.2887 68.2206C93.1401 66.3513 94.7696 64.3474 96.1562 62.2351H101.718C101.946 62.2351 102.172 62.1991 102.382 62.1292C102.593 62.0593 102.784 61.9569 102.945 61.8278L106.414 59.0465C106.739 58.7857 106.922 58.432 106.922 58.0632C106.922 57.6944 106.739 57.3406 106.414 57.0798C106.088 56.819 105.647 56.6725 105.187 56.6725C104.727 56.6725 104.286 56.819 103.961 57.0798L101 59.4538H97.3222C97.6198 57.7138 97.1711 55.9443 96.0496 54.4357C95.0798 53.1444 93.7384 52.058 92.1377 51.2675C94.4935 50.9491 96.9082 51.057 99.2053 51.5834L102.976 52.4471C103.274 52.5153 103.588 52.5184 103.888 52.4562C104.187 52.394 104.46 52.2687 104.679 52.0934L108.148 49.3121C108.45 49.0702 108.63 48.7474 108.653 48.4058C108.677 48.0641 108.542 47.7274 108.276 47.4602L101.338 40.5071C101.131 40.2991 100.853 40.1433 100.539 40.0582C100.224 39.973 99.8856 39.962 99.5634 40.0266L93.8116 41.1794L91.7015 38.6415L95.4365 34.6487L97.8646 35.2477C103.252 36.5768 108.072 39.0827 111.783 42.4845C115.494 45.8863 117.951 50.0496 118.877 54.5079L118.903 54.6296C118.922 54.7224 118.917 54.8174 118.89 54.9088C118.862 55.0002 118.811 55.0862 118.741 55.1616Z" fill="black"/>
<path d="M73.9688 67.7969H67.0312C66.5713 67.7969 66.1301 67.9434 65.8049 68.2042C65.4796 68.465 65.2969 68.8187 65.2969 69.1875C65.2969 69.5563 65.4796 69.91 65.8049 70.1708C66.1301 70.4316 66.5713 70.5781 67.0312 70.5781H73.9688C74.4287 70.5781 74.8699 70.4316 75.1951 70.1708C75.5204 69.91 75.7031 69.5563 75.7031 69.1875C75.7031 68.8187 75.5204 68.465 75.1951 68.2042C74.8699 67.9434 74.4287 67.7969 73.9688 67.7969Z" fill="black"/>
<path d="M54.9796 45.9868C55.1251 46.3367 55.438 46.6259 55.8494 46.7909C56.2609 46.9558 56.7372 46.983 57.1736 46.8663C57.61 46.7497 57.9708 46.4988 58.1765 46.1689C58.3822 45.839 58.4161 45.4571 58.2706 45.1072L56.5362 40.9353C56.4642 40.7621 56.3503 40.6019 56.2011 40.4639C56.0518 40.3259 55.8702 40.2129 55.6664 40.1312C55.4627 40.0495 55.2409 40.0008 55.0137 39.9879C54.7865 39.9749 54.5583 39.998 54.3423 40.0557C54.1262 40.1135 53.9264 40.2048 53.7543 40.3245C53.5822 40.4441 53.4412 40.5898 53.3394 40.7531C53.2375 40.9165 53.1768 41.0943 53.1606 41.2765C53.1445 41.4587 53.1732 41.6416 53.2453 41.8149L54.9796 45.9868Z" fill="black"/>
<path d="M62.6003 48.0961C62.983 48.3007 63.4514 48.3751 63.9025 48.3028C64.3535 48.2305 64.7503 48.0174 65.0055 47.7106L68.4742 43.5387C68.7265 43.2318 68.817 42.8574 68.7259 42.4972C68.6348 42.137 68.3696 41.8203 67.9882 41.6164C67.6069 41.4125 67.1403 41.338 66.6906 41.4091C66.2409 41.4802 65.8445 41.6911 65.5882 41.9958L62.1195 46.1677C61.8643 46.4746 61.7716 46.8501 61.8618 47.2118C61.952 47.5734 62.2176 47.8915 62.6003 48.0961Z" fill="black"/>
<path d="M83.8267 46.8663C84.0427 46.9241 84.2709 46.9472 84.4981 46.9342C84.7253 46.9213 84.9471 46.8726 85.1509 46.7909C85.3546 46.7092 85.5363 46.5962 85.6855 46.4582C85.8347 46.3202 85.9486 46.16 86.0206 45.9868L87.755 41.8149C87.9005 41.465 87.8666 41.0831 87.6609 40.7531C87.4552 40.4232 87.0944 40.1724 86.658 40.0557C86.2216 39.9391 85.7453 39.9662 85.3338 40.1312C84.9224 40.2962 84.6095 40.5854 84.464 40.9353L82.7297 45.1072C82.6576 45.2804 82.6288 45.4634 82.645 45.6456C82.6611 45.8277 82.7219 46.0056 82.8237 46.1689C82.9256 46.3323 83.0666 46.478 83.2387 46.5976C83.4108 46.7173 83.6106 46.8086 83.8267 46.8663Z" fill="black"/>
<path d="M75.9957 47.7073C76.252 48.012 76.6484 48.223 77.0981 48.294C77.5478 48.3651 78.0144 48.2906 78.3958 48.0867C78.7771 47.8828 79.0423 47.5662 79.1334 47.206C79.2245 46.8457 79.134 46.4713 78.8817 46.1644L75.413 41.9925C75.2872 41.8395 75.125 41.708 74.9356 41.6054C74.7462 41.5028 74.5334 41.4313 74.3094 41.3949C74.0854 41.3585 73.8547 41.358 73.6304 41.3933C73.4062 41.4286 73.1928 41.4991 73.0027 41.6008C72.8125 41.7025 72.6493 41.8332 72.5224 41.9856C72.3955 42.138 72.3074 42.309 72.2632 42.4888C72.219 42.6686 72.2196 42.8536 72.2648 43.0332C72.3101 43.2128 72.3992 43.3835 72.527 43.5354L75.9957 47.7073Z" fill="black"/>
<path d="M34.0781 24.6875H30.6094V27.4688H34.0781V24.6875Z" fill="black"/>
<path d="M34.0781 30.25H30.6094V33.0312H34.0781V30.25Z" fill="black"/>
<path d="M30.6094 27.4688H27.1406V30.25H30.6094V27.4688Z" fill="black"/>
<path d="M37.5469 27.4688H34.0781V30.25H37.5469V27.4688Z" fill="black"/>
<path d="M82.6406 23.2969H79.1719V26.0781H82.6406V23.2969Z" fill="black"/>
<path d="M82.6406 31.6406H79.1719V34.4219H82.6406V31.6406Z" fill="black"/>
<path d="M77.4375 27.4688H73.9688V30.25H77.4375V27.4688Z" fill="black"/>
<path d="M87.8438 27.4688H84.375V30.25H87.8438V27.4688Z" fill="black"/>
</g>
<defs>
<clipPath id="clip0_491_16661">
<rect width="129.593" height="100" fill="white" transform="translate(0.203125)"/>
</clipPath>
</defs>
</svg>
