<svg width="130" height="100" viewBox="0 0 130 100" fill="none" xmlns="http://www.w3.org/2000/svg">
<g clip-path="url(#clip0_491_16705)">
<path d="M14.814 35.7566C14.814 35.7566 -8.70195 76.7647 3.92537 85.3175C16.5527 93.8704 49.2362 99.9996 62.3729 99.9821C75.492 99.9645 115.376 97.2424 127.318 61.942C139.261 26.6417 105.875 2.52863 75.5271 3.7053C45.1793 4.88198 14.814 35.7566 14.814 35.7566Z" fill="#A7B592"/>
<path d="M80.878 78.5239C83.2872 78.5239 83.2872 82.5256 80.878 82.5256H45.6427C42.886 82.5256 40.3807 81.2953 38.5666 79.3141C36.7515 77.3319 35.625 74.5958 35.625 71.5852V39.9874V34.0888C35.625 28.0667 40.1294 23.1484 45.6427 23.1484H97.2582C102.772 23.1484 107.276 28.0667 107.276 34.0888V46.3772C107.276 49.0093 103.612 49.0093 103.612 46.3772V41.9883H39.2892V71.5852C39.2892 73.4909 40.0046 75.2251 41.1572 76.4839C42.3098 77.7426 43.8977 78.5239 45.6427 78.5239H80.878ZM86.8267 69.4883C85.6229 67.2188 88.7862 65.218 89.99 67.4874L92.5087 72.2508L101.558 62.3682C103.262 60.5076 105.852 63.3368 104.149 65.1984L93.4145 76.9211C92.5662 77.8455 91.1372 77.6387 90.5375 76.5064L86.8267 69.4883ZM88.4676 57.5656H84.5502V68.1335C84.5502 77.8142 89.0744 80.5679 95.6308 85.4274C102.187 80.5679 106.711 77.8142 106.711 68.1335V57.5656H102.793C101.781 57.5656 100.961 56.6696 100.961 55.5648V53.4414H90.2996V55.5648C90.2996 56.6696 89.4792 57.5656 88.4676 57.5656ZM82.7181 53.5639H86.6355V51.4406C86.6355 50.3357 87.4559 49.4397 88.4676 49.4397H102.793C103.805 49.4397 104.625 50.3357 104.625 51.4406V53.5639H108.543C109.555 53.5639 110.375 54.4599 110.375 55.5648V68.1335C110.375 80.4757 104.805 83.3157 96.7052 89.4673C96.093 89.9525 95.2421 89.9888 94.5859 89.4898C86.4802 83.3334 80.886 80.4934 80.886 68.1335V55.5648C80.886 54.4599 81.7065 53.5639 82.7181 53.5639ZM45.6427 37.1592C43.2334 37.1592 43.2334 33.1575 45.6427 33.1575H69.459C71.8692 33.1575 71.8692 37.1592 69.459 37.1592H45.6427ZM45.6427 32.2527C43.2334 32.2527 43.2334 28.251 45.6427 28.251H69.459C71.8692 28.251 71.8692 32.2527 69.459 32.2527H45.6427ZM79.0342 30.7038C81.4444 30.7038 81.4444 34.7055 79.0342 34.7055H77.563C75.1537 34.7055 75.1537 30.7038 77.563 30.7038H79.0342ZM88.2467 30.7038C90.6569 30.7038 90.6569 34.7055 88.2467 34.7055H86.7755C84.3662 34.7055 84.3662 30.7038 86.7755 30.7038H88.2467ZM97.4593 30.7038C99.8694 30.7038 99.8694 34.7055 97.4593 34.7055H95.9889C93.5787 34.7055 93.5787 30.7038 95.9889 30.7038H97.4593ZM103.612 37.9866V34.0888C103.612 30.2764 100.749 27.1491 97.2582 27.1491H45.6427C42.1527 27.1491 39.2892 30.2764 39.2892 34.0888V37.9866H103.612Z" fill="black"/>
</g>
<defs>
<clipPath id="clip0_491_16705">
<rect width="129.593" height="100" fill="white" transform="translate(0.203125)"/>
</clipPath>
</defs>
</svg>
