<svg width="285" height="41" viewBox="0 0 285 41" fill="none" xmlns="http://www.w3.org/2000/svg">
<path d="M181.717 1.03413C161.521 1.65908 141.337 2.70728 121.187 4.17872C102.901 4.50276 84.6124 4.82681 66.3268 5.15086C46.2623 5.50797 26.1979 5.86178 6.1367 6.21889C4.19572 6.25196 1.19001 7.6771 0.89242 9.8297C0.565066 12.2038 3.50133 12.6006 5.15463 12.5742C18.1926 12.3427 31.2305 12.1113 44.2685 11.8798C38.8423 12.5709 33.4228 13.2884 28.0033 14.039C26.1251 14.3002 23.503 15.1798 22.9045 17.2332C22.3688 19.0651 24.042 20.3645 25.8176 20.3976C55.9276 20.9134 86.0408 21.4326 116.151 21.9484C122.559 22.0575 128.967 22.17 135.375 22.2791C126.157 23.2876 116.951 24.4482 107.772 25.7609C93.3782 27.8242 79.044 30.2711 64.7727 33.0586C63.2318 33.3595 61.0462 34.7086 60.8114 36.438C60.5833 38.0913 62.4052 39.1725 63.8667 39.1857C98.1099 39.4833 132.353 39.7842 166.596 40.0818C176.252 40.1645 185.904 40.2505 195.559 40.3331C197.771 40.353 200.608 39.7214 201.722 37.549C202.718 35.6047 200.853 33.9878 198.951 33.9712C165.988 33.6836 133.024 33.3959 100.061 33.1082C100.98 32.9693 101.896 32.8271 102.815 32.6916C115.271 30.8465 127.77 29.2825 140.296 28.0028C165.36 25.4435 190.536 24.0183 215.729 23.7373C216.843 23.7241 217.971 23.7174 219.095 23.7108C231.865 23.9291 244.632 24.1506 257.402 24.3688C259.611 24.4052 262.458 23.7439 263.566 21.5847C264.584 19.6007 262.68 18.083 260.795 18.0069C247.764 17.4845 234.719 17.2596 221.678 17.3357C204.606 17.0414 187.534 16.7504 170.462 16.4561C140.352 15.9403 110.239 15.4212 80.1286 14.9053C77.7016 14.8624 75.2712 14.8227 72.8441 14.7797C88.61 13.1032 104.402 11.6847 120.215 10.5307C153.178 9.94543 186.145 9.36347 219.109 8.7782C239.173 8.42109 259.237 8.06728 279.299 7.71017C281.14 7.6771 283.845 6.41398 284.397 4.51599C284.94 2.66098 283.253 1.4177 281.484 1.35157C248.243 0.114898 214.962 0.00578024 181.717 1.03413Z" fill="#404040"/>
</svg>
