<svg width="58" height="58" viewBox="0 0 58 58" fill="none" xmlns="http://www.w3.org/2000/svg">
<rect x="1.12305" y="1.23438" width="55.6038" height="55.6038" rx="27.8019" fill="white"/>
<rect x="1.12305" y="1.23438" width="55.6038" height="55.6038" rx="27.8019" stroke="#1D1D1D"/>
<path d="M17.3129 17.4223H21.6671L24.5698 14.5195H33.2781L36.1808 17.4223H40.535C41.3048 17.4223 42.0432 17.7281 42.5875 18.2725C43.1319 18.8169 43.4377 19.5552 43.4377 20.325V37.7416C43.4377 38.5114 43.1319 39.2498 42.5875 39.7941C42.0432 40.3385 41.3048 40.6443 40.535 40.6443H17.3129C16.5431 40.6443 15.8047 40.3385 15.2604 39.7941C14.716 39.2498 14.4102 38.5114 14.4102 37.7416V20.325C14.4102 19.5552 14.716 18.8169 15.2604 18.2725C15.8047 17.7281 16.5431 17.4223 17.3129 17.4223ZM28.9239 21.7764C26.9993 21.7764 25.1535 22.541 23.7925 23.9019C22.4316 25.2629 21.6671 27.1087 21.6671 29.0333C21.6671 30.958 22.4316 32.8038 23.7925 34.1647C25.1535 35.5256 26.9993 36.2902 28.9239 36.2902C30.8486 36.2902 32.6944 35.5256 34.0553 34.1647C35.4163 32.8038 36.1808 30.958 36.1808 29.0333C36.1808 27.1087 35.4163 25.2629 34.0553 23.9019C32.6944 22.541 30.8486 21.7764 28.9239 21.7764ZM28.9239 24.6792C30.0787 24.6792 31.1862 25.1379 32.0028 25.9545C32.8193 26.771 33.2781 27.8785 33.2781 29.0333C33.2781 30.1881 32.8193 31.2956 32.0028 32.1122C31.1862 32.9287 30.0787 33.3875 28.9239 33.3875C27.7692 33.3875 26.6617 32.9287 25.8451 32.1122C25.0285 31.2956 24.5698 30.1881 24.5698 29.0333C24.5698 27.8785 25.0285 26.771 25.8451 25.9545C26.6617 25.1379 27.7692 24.6792 28.9239 24.6792Z" fill="#1D1D1D"/>
</svg>
